<svg width="237" height="237" viewBox="0 0 237 237" fill="none" xmlns="http://www.w3.org/2000/svg">
<rect width="237" height="237" rx="40" fill="#101010"/>
<path d="M90.5914 105.099C90.1484 103.457 89.497 102.011 88.6371 100.76C87.7771 99.4835 86.7218 98.4021 85.471 97.5162C84.2202 96.6302 82.787 95.9657 81.1714 95.5227C79.5558 95.0537 77.7839 94.8192 75.8556 94.8192C71.973 94.8192 68.6115 95.7572 65.7712 97.6334C62.9569 99.5096 60.7811 102.246 59.2436 105.842C57.7062 109.412 56.9375 113.75 56.9375 118.858C56.9375 123.991 57.6802 128.369 59.1655 131.991C60.6508 135.613 62.8005 138.375 65.6148 140.277C68.4291 142.18 71.8427 143.131 75.8556 143.131C79.3995 143.131 82.3962 142.557 84.8456 141.411C87.3211 140.238 89.1973 138.584 90.4741 136.447C91.751 134.31 92.3894 131.795 92.3894 128.903L95.9854 129.333H76.5201V115.223H111.034V125.815C111.034 132.981 109.51 139.118 106.461 144.225C103.438 149.332 99.2687 153.254 93.9529 155.99C88.6631 158.726 82.5786 160.094 75.6993 160.094C68.0643 160.094 61.3543 158.44 55.5695 155.13C49.7846 151.821 45.2765 147.105 42.0454 140.981C38.8142 134.831 37.1986 127.535 37.1986 119.092C37.1986 112.526 38.1757 106.702 40.1301 101.62C42.0844 96.5129 44.8075 92.1873 48.2993 88.6434C51.8171 85.0995 55.8822 82.4156 60.4944 80.5915C65.1327 78.7674 70.1228 77.8554 75.4647 77.8554C80.1031 77.8554 84.4157 78.5199 88.4025 79.8488C92.4155 81.1778 95.9593 83.054 99.0342 85.4774C102.135 87.9008 104.65 90.7802 106.578 94.1156C108.506 97.451 109.705 101.112 110.174 105.099H90.5914ZM197.993 118.975C197.993 127.783 196.299 135.248 192.911 141.372C189.524 147.495 184.938 152.147 179.153 155.326C173.394 158.505 166.932 160.094 159.766 160.094C152.574 160.094 146.098 158.492 140.339 155.287C134.581 152.082 130.007 147.43 126.62 141.333C123.258 135.209 121.578 127.756 121.578 118.975C121.578 110.167 123.258 102.702 126.62 96.5781C130.007 90.4544 134.581 85.8031 140.339 82.624C146.098 79.4449 152.574 77.8554 159.766 77.8554C166.932 77.8554 173.394 79.4449 179.153 82.624C184.938 85.8031 189.524 90.4544 192.911 96.5781C196.299 102.702 197.993 110.167 197.993 118.975ZM178.215 118.975C178.215 113.763 177.472 109.36 175.987 105.764C174.527 102.168 172.417 99.4445 169.655 97.5943C166.919 95.7442 163.622 94.8192 159.766 94.8192C155.935 94.8192 152.639 95.7442 149.877 97.5943C147.114 99.4445 144.991 102.168 143.505 105.764C142.046 109.36 141.317 113.763 141.317 118.975C141.317 124.187 142.046 128.59 143.505 132.186C144.991 135.782 147.114 138.505 149.877 140.356C152.639 142.206 155.935 143.131 159.766 143.131C163.622 143.131 166.919 142.206 169.655 140.356C172.417 138.505 174.527 135.782 175.987 132.186C177.472 128.59 178.215 124.187 178.215 118.975Z" fill="white"/>
</svg>
